<svg id="svg" version="1.1" xmlns="http://www.w3.org/2000/svg" xmlns:xlink="http://www.w3.org/1999/xlink" width="400" height="400" viewBox="0, 0, 400,400"><g id="svgg"><path id="path0" d="M229.200 28.000 C 221.981 28.522,216.334 29.128,212.648 29.776 C 210.694 30.119,208.453 30.400,207.668 30.400 C 206.884 30.400,204.792 30.577,203.021 30.794 C 195.504 31.715,191.960 32.095,188.000 32.408 C 182.687 32.829,172.862 33.926,172.019 34.194 C 171.666 34.306,169.403 34.576,166.989 34.795 C 164.575 35.013,160.080 35.470,157.000 35.809 C 153.920 36.149,149.510 36.591,147.200 36.792 C 142.894 37.166,136.331 37.881,126.800 39.014 C 116.403 40.250,112.166 40.737,108.000 41.176 C 105.690 41.419,102.699 41.794,101.354 42.009 C 100.009 42.224,98.151 42.400,97.227 42.400 C 96.302 42.400,93.623 42.658,91.273 42.972 C 88.923 43.287,84.480 43.836,81.400 44.193 C 78.320 44.549,73.910 45.093,71.600 45.402 C 64.486 46.353,63.625 46.427,55.992 46.755 C 48.191 47.090,47.272 47.308,46.100 49.096 C 45.437 50.108,45.400 56.753,45.400 174.382 L 45.400 298.600 46.731 303.400 C 54.752 332.315,74.676 353.682,95.800 356.023 C 97.780 356.242,100.210 356.589,101.200 356.793 C 102.190 356.998,103.934 357.173,105.075 357.183 C 106.217 357.192,108.287 357.459,109.675 357.776 C 111.064 358.092,113.550 358.469,115.200 358.613 C 116.850 358.757,118.830 359.031,119.600 359.223 C 120.962 359.562,125.807 360.243,135.200 361.416 C 137.730 361.732,140.700 362.171,141.800 362.392 C 142.900 362.613,145.510 362.970,147.600 363.186 C 152.897 363.733,160.509 364.670,163.600 365.157 C 167.899 365.833,172.889 366.501,174.800 366.656 C 175.790 366.737,179.120 367.159,182.200 367.595 C 185.280 368.031,189.960 368.668,192.600 369.011 C 195.240 369.354,199.772 369.986,202.671 370.417 C 205.570 370.848,208.721 371.200,209.673 371.200 C 210.626 371.200,212.003 371.371,212.733 371.581 C 213.463 371.790,215.892 372.158,218.130 372.397 C 220.369 372.637,222.920 372.997,223.800 373.196 C 231.780 375.008,253.877 375.649,259.200 374.224 C 270.536 371.189,279.023 366.420,287.400 358.379 L 290.200 355.692 293.400 355.442 C 327.801 352.758,353.861 329.092,360.175 294.800 C 360.731 291.780,360.801 281.316,360.800 201.060 L 360.800 110.720 359.792 105.154 C 353.949 72.907,323.682 46.400,292.701 46.400 C 290.016 46.400,289.649 46.302,288.770 45.349 C 282.713 38.784,272.291 32.244,263.000 29.178 L 259.000 27.858 246.200 27.777 C 239.160 27.733,231.510 27.833,229.200 28.000 M249.990 48.214 C 260.018 49.987,273.044 57.789,277.764 64.849 C 278.444 65.867,279.881 67.906,280.957 69.381 C 283.848 73.340,288.023 82.857,289.360 88.531 C 290.359 92.772,290.432 93.264,290.887 98.800 C 291.475 105.961,291.484 295.859,290.897 303.400 C 290.276 311.379,289.077 316.034,285.566 324.091 C 281.101 334.341,276.720 339.828,267.907 346.207 C 258.272 353.180,246.396 355.378,230.600 353.111 C 227.960 352.732,222.740 352.052,219.000 351.600 C 215.260 351.147,210.040 350.513,207.400 350.191 C 204.760 349.869,199.450 349.242,195.600 348.799 C 191.750 348.355,186.530 347.723,184.000 347.394 C 177.888 346.599,158.836 344.317,147.200 342.986 C 144.230 342.646,139.820 342.110,137.400 341.795 C 134.980 341.480,129.940 340.852,126.200 340.399 C 112.372 338.727,109.385 338.343,108.720 338.153 C 107.198 337.718,107.475 336.096,110.833 325.784 C 111.480 323.795,112.534 320.285,113.173 317.984 C 115.054 311.219,116.745 306.650,117.645 305.901 C 118.559 305.142,118.026 305.127,128.600 306.203 C 131.680 306.516,138.430 307.155,143.600 307.621 C 168.806 309.896,167.836 309.678,169.041 313.347 C 176.672 336.579,199.755 341.032,209.709 321.193 C 221.231 298.229,201.384 268.496,180.920 278.063 C 175.736 280.486,170.390 287.352,168.582 293.906 C 167.693 297.131,167.837 297.100,157.607 296.259 C 138.448 294.683,134.183 294.320,126.400 293.601 C 113.287 292.390,111.478 292.307,110.703 292.887 C 109.900 293.487,109.466 294.846,102.030 320.000 C 101.347 322.310,100.446 325.190,100.027 326.400 C 99.608 327.610,98.874 330.040,98.396 331.800 C 97.219 336.132,97.097 336.232,93.691 335.670 C 85.167 334.262,71.839 323.784,67.730 315.259 C 67.131 314.017,66.232 312.369,65.732 311.597 C 63.809 308.631,60.118 297.665,59.160 292.074 C 57.784 284.038,57.214 257.566,58.400 256.766 C 59.075 256.311,66.362 256.523,80.200 257.399 C 85.040 257.705,91.520 258.065,94.600 258.198 C 97.680 258.331,102.360 258.609,105.000 258.815 C 107.640 259.021,113.310 259.368,117.600 259.585 C 125.506 259.986,138.525 260.755,155.600 261.831 C 160.770 262.157,169.950 262.683,176.000 263.001 C 182.050 263.319,187.900 263.675,189.000 263.792 C 190.100 263.909,196.310 264.283,202.800 264.622 C 231.537 266.123,229.494 265.656,231.593 271.200 C 240.543 294.834,269.986 293.357,276.952 268.925 C 284.033 244.089,261.768 220.219,241.890 231.335 C 236.276 234.474,229.600 244.298,229.600 249.419 C 229.600 249.760,229.313 250.595,228.962 251.273 L 228.324 252.507 220.262 252.237 C 215.828 252.088,205.450 251.625,197.200 251.207 C 188.950 250.790,179.500 250.340,176.200 250.207 C 172.900 250.075,167.590 249.796,164.400 249.587 C 161.210 249.378,152.210 248.939,144.400 248.611 C 136.590 248.283,129.210 247.918,128.000 247.800 C 126.790 247.682,119.590 247.318,112.000 246.992 C 104.410 246.665,95.590 246.226,92.400 246.016 C 89.210 245.807,83.540 245.529,79.800 245.399 C 68.746 245.015,59.525 244.388,58.736 243.966 C 57.756 243.441,57.577 209.131,58.548 207.804 C 59.080 207.076,59.803 207.069,84.048 207.570 C 97.771 207.853,121.151 208.298,136.003 208.559 C 150.855 208.819,163.231 209.172,163.506 209.342 C 163.781 209.512,164.874 211.485,165.935 213.726 C 173.592 229.901,189.537 233.436,200.346 221.354 C 216.986 202.754,204.389 168.341,182.284 172.012 C 173.218 173.518,166.070 181.739,163.429 193.694 C 163.059 195.370,164.414 195.341,110.253 194.846 L 59.400 194.382 58.645 193.491 C 57.916 192.630,57.925 159.303,58.655 157.402 C 59.033 156.417,60.086 156.334,76.800 155.978 C 85.930 155.784,101.770 155.428,112.000 155.187 C 122.230 154.945,136.669 154.625,144.086 154.474 C 155.297 154.246,157.669 154.099,158.147 153.600 C 158.939 152.774,160.360 146.975,162.965 133.938 C 166.478 116.364,166.576 116.106,169.958 115.571 C 189.515 112.480,197.424 78.943,181.889 64.976 C 178.344 61.789,170.125 58.842,167.263 59.732 C 166.898 59.846,165.402 60.373,163.938 60.903 C 145.983 67.409,140.367 95.563,154.097 110.240 L 156.496 112.804 156.291 115.102 C 156.098 117.277,155.390 120.689,152.261 134.525 C 151.524 137.784,150.645 140.727,150.307 141.064 C 149.624 141.747,147.244 141.862,110.400 142.995 C 99.070 143.343,85.907 143.801,81.149 144.014 C 66.095 144.686,59.312 144.557,58.795 143.591 C 58.497 143.034,58.422 138.390,58.556 128.691 C 58.662 120.941,58.897 103.918,59.078 90.862 L 59.406 67.124 60.348 66.362 C 60.942 65.881,61.913 65.600,62.981 65.600 C 63.911 65.600,66.096 65.432,67.836 65.228 C 69.576 65.023,74.330 64.565,78.400 64.210 C 88.156 63.360,92.134 62.873,94.800 62.201 C 96.960 61.657,102.074 61.034,114.400 59.813 C 117.810 59.475,123.300 58.930,126.600 58.601 C 132.602 58.004,135.412 57.734,147.400 56.600 C 150.920 56.267,156.500 55.726,159.800 55.398 C 163.100 55.069,170.480 54.348,176.200 53.796 C 181.920 53.244,189.345 52.525,192.700 52.199 C 196.056 51.873,201.636 51.332,205.100 50.996 C 211.012 50.423,214.959 50.030,229.200 48.592 C 232.390 48.270,235.630 47.944,236.400 47.867 C 240.089 47.500,246.942 47.675,249.990 48.214 M172.180 73.627 C 176.847 75.373,179.400 80.243,179.400 87.400 L 179.400 92.200 177.654 95.502 C 173.176 103.974,165.167 105.525,159.816 98.956 C 150.939 88.058,160.176 69.136,172.180 73.627 M189.525 186.217 C 201.683 192.299,198.281 215.600,185.235 215.600 C 171.696 215.600,169.007 189.504,182.113 185.295 C 184.627 184.488,186.545 184.726,189.525 186.217 M258.513 243.900 C 267.246 248.653,269.013 264.255,261.579 270.971 C 251.350 280.213,236.318 267.766,240.181 253.252 C 242.673 243.890,250.839 239.724,258.513 243.900 M192.780 290.231 C 202.232 293.038,205.301 310.158,197.637 317.327 C 188.907 325.493,177.042 316.126,178.346 302.100 C 179.225 292.651,184.984 287.916,192.780 290.231 " stroke="none" fill="#1d1148" fill-rule="evenodd"></path><path id="path1" d="M236.400 47.867 C 235.630 47.944,232.390 48.270,229.200 48.592 C 214.959 50.030,211.012 50.423,205.100 50.996 C 201.636 51.332,196.056 51.873,192.700 52.199 C 189.345 52.525,181.920 53.244,176.200 53.796 C 170.480 54.348,163.100 55.069,159.800 55.398 C 156.500 55.726,150.920 56.267,147.400 56.600 C 135.412 57.734,132.602 58.004,126.600 58.601 C 123.300 58.930,117.810 59.475,114.400 59.813 C 102.074 61.034,96.960 61.657,94.800 62.201 C 92.134 62.873,88.156 63.360,78.400 64.210 C 74.330 64.565,69.576 65.023,67.836 65.228 C 66.096 65.432,63.911 65.600,62.981 65.600 C 61.913 65.600,60.942 65.881,60.348 66.362 L 59.406 67.124 59.078 90.862 C 58.897 103.918,58.662 120.941,58.556 128.691 C 58.422 138.390,58.497 143.034,58.795 143.591 C 59.312 144.557,66.095 144.686,81.149 144.014 C 85.907 143.801,99.070 143.343,110.400 142.995 C 147.244 141.862,149.624 141.747,150.307 141.064 C 150.645 140.727,151.524 137.784,152.261 134.525 C 155.390 120.689,156.098 117.277,156.291 115.102 L 156.496 112.804 154.097 110.240 C 140.367 95.563,145.983 67.409,163.938 60.903 C 165.402 60.373,166.898 59.846,167.263 59.732 C 170.125 58.842,178.344 61.789,181.889 64.976 C 197.424 78.943,189.515 112.480,169.958 115.571 C 166.576 116.106,166.478 116.364,162.965 133.938 C 160.360 146.975,158.939 152.774,158.147 153.600 C 157.669 154.099,155.297 154.246,144.086 154.474 C 136.669 154.625,122.230 154.945,112.000 155.187 C 101.770 155.428,85.930 155.784,76.800 155.978 C 60.086 156.334,59.033 156.417,58.655 157.402 C 57.925 159.303,57.916 192.630,58.645 193.491 L 59.400 194.382 110.253 194.846 C 164.414 195.341,163.059 195.370,163.429 193.694 C 167.848 173.686,185.774 165.093,198.333 176.962 C 212.412 190.268,210.893 215.595,195.420 225.516 C 184.774 232.342,172.406 227.396,165.935 213.726 C 164.874 211.485,163.781 209.512,163.506 209.342 C 163.231 209.172,150.855 208.819,136.003 208.559 C 121.151 208.298,97.771 207.853,84.048 207.570 C 59.803 207.069,59.080 207.076,58.548 207.804 C 57.577 209.131,57.756 243.441,58.736 243.966 C 59.525 244.388,68.746 245.015,79.800 245.399 C 83.540 245.529,89.210 245.807,92.400 246.016 C 95.590 246.226,104.410 246.665,112.000 246.992 C 119.590 247.318,126.790 247.682,128.000 247.800 C 129.210 247.918,136.590 248.283,144.400 248.611 C 152.210 248.939,161.210 249.378,164.400 249.587 C 167.590 249.796,172.900 250.075,176.200 250.207 C 179.500 250.340,188.950 250.790,197.200 251.207 C 205.450 251.625,215.828 252.088,220.262 252.237 L 228.324 252.507 228.962 251.273 C 229.313 250.595,229.600 249.760,229.600 249.419 C 229.600 244.298,236.276 234.474,241.890 231.335 C 267.422 217.056,290.916 257.653,270.410 280.618 C 258.486 293.970,238.367 289.089,231.593 271.200 C 229.494 265.656,231.537 266.123,202.800 264.622 C 196.310 264.283,190.100 263.909,189.000 263.792 C 187.900 263.675,182.050 263.319,176.000 263.001 C 169.950 262.683,160.770 262.157,155.600 261.831 C 138.525 260.755,125.506 259.986,117.600 259.585 C 113.310 259.368,107.640 259.021,105.000 258.815 C 102.360 258.609,97.680 258.331,94.600 258.198 C 91.520 258.065,85.040 257.705,80.200 257.399 C 66.362 256.523,59.075 256.311,58.400 256.766 C 57.214 257.566,57.784 284.038,59.160 292.074 C 60.118 297.665,63.809 308.631,65.732 311.597 C 66.232 312.369,67.131 314.017,67.730 315.259 C 71.839 323.784,85.167 334.262,93.691 335.670 C 97.097 336.232,97.219 336.132,98.396 331.800 C 98.874 330.040,99.608 327.610,100.027 326.400 C 100.446 325.190,101.347 322.310,102.030 320.000 C 109.466 294.846,109.900 293.487,110.703 292.887 C 111.478 292.307,113.287 292.390,126.400 293.601 C 134.183 294.320,138.448 294.683,157.607 296.259 C 167.837 297.100,167.693 297.131,168.582 293.906 C 170.390 287.352,175.736 280.486,180.920 278.063 C 201.384 268.496,221.231 298.229,209.709 321.193 C 199.755 341.032,176.672 336.579,169.041 313.347 C 167.836 309.678,168.806 309.896,143.600 307.621 C 138.430 307.155,131.680 306.516,128.600 306.203 C 118.026 305.127,118.559 305.142,117.645 305.901 C 116.745 306.650,115.054 311.219,113.173 317.984 C 112.534 320.285,111.480 323.795,110.833 325.784 C 107.475 336.096,107.198 337.718,108.720 338.153 C 109.385 338.343,112.372 338.727,126.200 340.399 C 129.940 340.852,134.980 341.480,137.400 341.795 C 139.820 342.110,144.230 342.646,147.200 342.986 C 158.836 344.317,177.888 346.599,184.000 347.394 C 186.530 347.723,191.750 348.355,195.600 348.799 C 199.450 349.242,204.760 349.869,207.400 350.191 C 210.040 350.513,215.260 351.147,219.000 351.600 C 222.740 352.052,227.960 352.732,230.600 353.111 C 246.396 355.378,258.272 353.180,267.907 346.207 C 274.915 341.134,276.040 339.957,281.586 331.891 C 283.321 329.369,287.589 319.911,288.581 316.392 C 291.373 306.484,291.301 309.546,291.316 201.200 C 291.330 108.369,291.213 97.081,290.193 92.200 C 288.451 83.873,284.614 74.390,280.957 69.381 C 279.881 67.906,278.444 65.867,277.764 64.849 C 270.298 53.683,252.284 46.287,236.400 47.867 M165.000 73.593 C 156.073 78.016,153.402 91.083,159.816 98.956 C 165.167 105.525,173.176 103.974,177.654 95.502 L 179.400 92.200 179.400 87.400 C 179.400 76.954,172.183 70.035,165.000 73.593 M172.787 75.241 C 178.127 78.242,180.156 88.003,176.800 94.546 C 172.785 102.375,166.252 104.004,161.117 98.457 C 152.013 88.623,161.835 69.085,172.787 75.241 M182.113 185.295 C 172.604 188.349,170.206 206.327,178.459 212.692 C 185.005 217.740,191.797 215.652,195.673 207.400 C 200.911 196.246,192.205 182.054,182.113 185.295 M187.282 186.564 C 190.356 187.662,192.639 189.505,193.901 191.909 C 200.973 205.384,188.581 220.797,178.551 211.001 C 169.746 202.402,176.749 182.803,187.282 186.564 M247.800 243.134 C 237.355 248.164,236.796 265.080,246.851 271.843 C 260.819 281.237,273.345 260.473,261.971 246.780 C 258.843 243.014,251.808 241.204,247.800 243.134 M257.618 244.823 C 265.702 248.870,267.599 264.394,260.720 270.212 C 249.334 279.841,235.482 263.215,243.113 249.079 C 245.698 244.290,252.543 242.282,257.618 244.823 M185.877 290.171 C 179.413 291.909,175.978 303.706,179.571 311.829 C 185.532 325.304,201.313 321.850,201.922 306.936 C 202.389 295.511,194.945 287.733,185.877 290.171 M192.514 291.433 C 200.980 294.317,203.711 310.308,196.804 316.549 C 189.398 323.239,179.453 316.056,179.430 304.000 C 179.412 294.475,185.181 288.934,192.514 291.433 " stroke="none" fill="#dbdb94" fill-rule="evenodd"></path><path id="path2" d="M165.800 74.534 C 157.215 78.483,154.668 91.492,161.117 98.457 C 171.361 109.522,184.319 90.540,175.375 77.571 C 173.451 74.781,168.605 73.244,165.800 74.534 M182.679 186.578 C 171.652 190.511,171.822 210.257,182.913 213.726 C 192.441 216.705,199.529 202.632,193.901 191.909 C 191.692 187.701,186.476 185.223,182.679 186.578 M249.101 244.007 C 243.228 245.736,239.408 254.537,241.356 261.853 C 243.556 270.114,251.211 275.093,257.363 272.264 C 271.701 265.672,264.076 239.596,249.101 244.007 M186.600 291.291 C 177.657 293.573,176.719 311.010,185.209 317.160 C 194.882 324.168,205.021 310.521,199.146 298.400 C 196.161 292.240,192.037 289.904,186.600 291.291 " stroke="none" fill="#f9f9fa" fill-rule="evenodd"></path></g></svg>