<?xml version="1.0"?>
<svg width="48" height="48" xmlns="http://www.w3.org/2000/svg" xmlns:svg="http://www.w3.org/2000/svg" version="1.1">
 <metadata id="metadata2388">image/svg+xmlXTerm mini-iconAugust 21, 2012Thomas E. Dickey</metadata>

 <g class="layer" display="inline">
  <title>Layer 1</title>
  <g display="inline" id="layer1">
   <text fill="#ff5e00" font-family="DejaVu Serif" font-size="59.8px" font-style="normal" font-weight="normal" id="text2393" stroke="#ff0000" stroke-miterlimit="4" stroke-width="1.2" text-anchor="start" transform="scale(1.0175137,0.9827878)" x="2.25" xml:space="preserve" y="46.21">
    <tspan fill="#ff5e00" id="tspan2395" stroke="#ff0000" stroke-miterlimit="4" stroke-width="1.2" x="2.25" y="46.21">X</tspan>
   </text>
  </g>
  <g id="layer3" transform="translate(43.871, 46.0289) matrix(0.990412, 0, 0, 0.990412, -43.4503, -45.5875)">
   <g fill="#dddd" fill-rule="evenodd" font-size="9pt" id="svg_2" stroke="#999d" stroke-linecap="round" stroke-width="0.5mm" transform="matrix(0.349298, 0, 0, 0.418332, 2.1543, 1.94922)">
    <path d="m0,6.2l0,-6.2l50.78,0l0,6.2a70.08,70.08 0 0 0 -3.4,0.08q-4.69,0.23 -7,1.14q-1.03,0.34 -1.66,1.22q-0.8,0.98 -1.15,3.07a15.64,15.64 0 0 0 -0.07,0.45a48.37,48.37 0 0 0 -0.16,2.1q-0.34,5.74 -0.62,21.73q-0.24,13.72 -0.24,27.83a74.83,74.83 0 0 0 0.21,5.89q0.57,7.22 2.66,11.17a18.38,18.38 0 0 0 8.4,8.13q8.01,3.76 17.44,3.76a68.21,68.21 0 0 0 7.11,-0.34q7.47,-0.79 12.17,-3.35a19.57,19.57 0 0 0 0.42,-0.24a21.34,21.34 0 0 0 5.54,-4.5a18.66,18.66 0 0 0 3.59,-6.31q2.01,-5.98 2.28,-24.3a403.85,403.85 0 0 0 0.04,-5.83l-0.1,-27.39a156.78,156.78 0 0 0 -0.06,-3.2q-0.2,-6.31 -0.9,-7.85a2.27,2.27 0 0 0 -0.02,-0.04a2.98,2.98 0 0 0 -1.49,-1.49a3.88,3.88 0 0 0 -0.17,-0.07a5.34,5.34 0 0 0 -1.09,-0.4q-2.79,-0.75 -10.58,-1.26l0,-6.2l37.5,0l0,6.2q-6.89,0 -9.26,1.24a3.37,3.37 0 0 0 -0.6,0.4a3.93,3.93 0 0 0 -0.93,1.23q-1.14,2.22 -1.46,7.24q-0.82,15.45 -0.92,34.78a1027.16,1027.16 0 0 0 -0.01,2.77q0,10.93 -0.29,15.7a42.51,42.51 0 0 1 -0.15,1.83a46.18,46.18 0 0 1 -1.53,8.63a34.25,34.25 0 0 1 -3.82,8.77q-4.46,7.21 -14.86,11.89q-10.41,4.69 -25.83,4.69q-16.07,0 -26.71,-4.44q-7.67,-3.2 -12.14,-7.61a22.64,22.64 0 0 1 -3,-3.62q-4.49,-6.78 -4.49,-19.84a74.77,74.77 0 0 1 0,-0.04l0.39,-33.3a173.7,173.7 0 0 0 -0.02,-1.93q-0.06,-5.14 -0.37,-18.43a42.59,42.59 0 0 0 -0.13,-2.29q-0.26,-3.21 -1.01,-4.63a3.94,3.94 0 0 0 -0.03,-0.06a3.77,3.77 0 0 0 -1.07,-1.11a5.27,5.27 0 0 0 -0.91,-0.5q-1.34,-0.59 -10.28,-1.37z" id="svg_3"/>
   </g>
  </g>
  <g id="layer2">
   <text fill="#0000f1" font-family="URW Bookman L" font-size="52.76px" font-style="normal" font-weight="normal" id="text3153" stroke="#00a2ff" stroke-miterlimit="4" stroke-width="0.6" text-anchor="start" transform="scale(1.1128485,0.8985949)" x="5.39" xml:space="preserve" y="45.42">
    <tspan id="tspan3155" stroke-miterlimit="4" stroke-width="0.6" x="5.39" y="45.42">T</tspan>
   </text>
  </g>
 </g>
</svg>